<svg xmlns="http://www.w3.org/2000/svg" viewBox="0 0 300 300" role="img" aria-label="כיסופים">
  <title>כיסופים</title>
  <defs>
    <linearGradient id="km-flame" x1="0" y1="1" x2="0" y2="0">
      <stop offset="0%"   stop-color="#A82508"/>
      <stop offset="30%"  stop-color="#DC5C0A"/>
      <stop offset="62%"  stop-color="#F2941B"/>
      <stop offset="100%" stop-color="#FFDA6B"/>
    </linearGradient>
    <radialGradient id="km-core" cx="50%" cy="70%" r="60%">
      <stop offset="0%"   stop-color="#FFF6D2"/>
      <stop offset="52%"  stop-color="#FCCE52"/>
      <stop offset="100%" stop-color="#E4720C"/>
    </radialGradient>
  </defs>

  <!-- להבה -->
  <path d="M150 12c19 48 48 69 71 94 29 31 46 73 42 111-5 48-46 83-113 83S42 265 37 217c-4-38 13-80 42-111 23-25 52-46 71-94z"
        fill="url(#km-flame)"/>

  <!-- ליבה בהירה — רחבה יותר מבעבר, כדי שהמילה תשב על רקע בהיר -->
  <path d="M150 70c14 35 35 51 52 70 21 23 33 54 30 81-3 35-33 60-82 60s-79-25-82-60c-3-27 9-58 30-81 17-19 38-35 52-70z"
        fill="url(#km-core)"/>

  <!-- לשונות אש -->
  <path d="M101 96c-15 21-23 46-19 67 3 16 12 26 12 26s-18-8-26-26c-9-21-3-50 33-67z" fill="#FFE083" opacity=".65"/>
  <path d="M199 96c15 21 23 46 19 67-3 16-12 26-12 26s18-8 26-26c9-21 3-50-33-67z" fill="#FFE083" opacity=".65"/>

  <!-- כיסופים -->
  <text x="150" y="233" text-anchor="middle" textLength="188" lengthAdjust="spacingAndGlyphs"
        font-family="Heebo, Assistant, Arial, sans-serif" font-weight="900" font-size="62"
        fill="#5A2206">כיסופים</text>
</svg>
